<?xml version="1.0" encoding="UTF-8" standalone="no"?>
<svg
   width="56"
   height="56"
   viewBox="0 0 56 56"
   fill="none"
   version="1.1"
   id="svg1671"
   sodipodi:docname="logo-favicon_temp.svg"
   inkscape:version="1.1.1 (3bf5ae0d25, 2021-09-20)"
   inkscape:export-filename="D:\Users\A\Projects\programming projects\Group Projects\Chingu\tier 2 August 7 2023\fireball app\main clone\v45-tier2-team-19\fireball\public\logo-favicon_temp.png"
   inkscape:export-xdpi="96"
   inkscape:export-ydpi="96"
   xmlns:inkscape="http://www.inkscape.org/namespaces/inkscape"
   xmlns:sodipodi="http://sodipodi.sourceforge.net/DTD/sodipodi-0.dtd"
   xmlns="http://www.w3.org/2000/svg"
   xmlns:svg="http://www.w3.org/2000/svg">
  <sodipodi:namedview
     id="namedview1673"
     pagecolor="#ffffff"
     bordercolor="#666666"
     borderopacity="1.0"
     inkscape:pageshadow="2"
     inkscape:pageopacity="0.0"
     inkscape:pagecheckerboard="0"
     showgrid="false"
     inkscape:zoom="6.0482884"
     inkscape:cx="25.875089"
     inkscape:cy="29.925822"
     inkscape:window-width="1366"
     inkscape:window-height="664"
     inkscape:window-x="1358"
     inkscape:window-y="-8"
     inkscape:window-maximized="1"
     inkscape:current-layer="layer2" />
  <defs
     id="defs1669">
    <clipPath
       id="clip0_437_136">
      <rect
         width="55.7728"
         height="55.8306"
         fill="white"
         id="rect1660" />
    </clipPath>
    <clipPath
       id="clip1_437_136">
      <rect
         width="28.5654"
         height="28.5938"
         fill="white"
         transform="translate(13.6035 13.6184)"
         id="rect1663" />
    </clipPath>
    <clipPath
       id="clip2_437_136">
      <rect
         width="28.5654"
         height="28.5938"
         fill="white"
         transform="translate(13.6035 13.6184)"
         id="rect1666" />
    </clipPath>
  </defs>
  <g
     inkscape:groupmode="layer"
     id="layer1"
     inkscape:label="background"
     style="display:inline">
    <ellipse
       style="fill:#000080;stroke:#cccccc;stroke-width:1.02426;stroke-linecap:round;stroke-linejoin:bevel"
       id="path3286"
       cx="27.528448"
       cy="28.603134"
       rx="32.543335"
       ry="31.468651"
       inkscape:export-filename="D:\Users\A\Projects\programming projects\Group Projects\Chingu\tier 2 August 7 2023\fireball app\main clone\v45-tier2-team-19\fireball\public\logo-favicon_temp.png"
       inkscape:export-xdpi="96"
       inkscape:export-ydpi="96" />
  </g>
  <g
     inkscape:groupmode="layer"
     id="layer2"
     inkscape:label="comet"
     style="display:inline">
    <path
       d="M 0,27.9151 C 0,12.4981 12.4852,0 27.8862,0 c 15.401,0 27.8862,12.4981 27.8862,27.9151 0,15.417 -12.4852,27.9152 -27.8862,27.9152 C 12.4852,55.8303 0,43.3321 0,27.9151 Z m 27.8862,24.2447 c 13.3756,0 24.2189,-10.8546 24.2196,-24.2447 0,-13.3894 -10.8434,-24.24398 -24.2196,-24.24398 -13.3755,0 -24.21888,10.85458 -24.21888,24.24398 0,13.3894 10.84338,24.244 24.21888,24.2447 z"
       fill="#171F27"
       id="path1650"
       style="display:inline;fill:#ffffff"
       transform="translate(-0.49600808,0.33067204)" />
    <g
       clip-path="url(#clip0_437_136)"
       id="g1658"
       style="fill:#ffffff"
       transform="translate(-0.49600808,0.33067204)">
      <g
         clip-path="url(#clip1_437_136)"
         id="g1656"
         style="fill:#ffffff">
        <g
           clip-path="url(#clip2_437_136)"
           id="g1654"
           style="fill:#ffffff">
          <path
             d="m 29.2501,28.0888 -3.2731,3.2765 c -0.2321,0.2323 -0.2321,0.61 0,0.8424 0.1166,0.1167 0.269,0.1739 0.4213,0.1739 0.1523,0 0.3047,-0.0584 0.4213,-0.1739 l 3.2731,-3.2765 c 0.2321,-0.2324 0.2321,-0.61 0,-0.8424 -0.2321,-0.2323 -0.6094,-0.2323 -0.8426,0 z m -3.5707,-3.9222 c 0.1167,0.1156 0.269,0.1739 0.4213,0.1739 0.1524,0 0.3047,-0.0583 0.4214,-0.1739 l 8.3315,-8.3401 c 0.2321,-0.2324 0.2321,-0.6101 0,-0.8424 -0.2321,-0.2323 -0.6094,-0.2323 -0.8415,0 l -8.3315,8.3401 c -0.2333,0.2324 -0.2333,0.6089 -0.0012,0.8424 z m 9.5217,-5.9572 c 0.1167,0.1155 0.269,0.1739 0.4213,0.1739 0.1524,0 0.3047,-0.0584 0.4214,-0.1739 l 3.5706,-3.5744 c 0.2321,-0.2323 0.2321,-0.61 0,-0.8423 -0.2321,-0.2324 -0.6094,-0.2324 -0.8415,0 l -3.5706,3.5743 c -0.2333,0.2323 -0.2333,0.6088 -0.0012,0.8424 z m -2.3804,1.5393 -1.1902,1.1914 c -0.2321,0.2324 -0.2321,0.6101 0,0.8424 0.1166,0.1168 0.269,0.1751 0.4213,0.1751 0.1524,0 0.3047,-0.0583 0.4213,-0.1739 l 1.1903,-1.1915 c 0.2321,-0.2323 0.2321,-0.61 0,-0.8423 -0.2321,-0.2323 -0.6094,-0.2335 -0.8427,-0.0012 z m -2.728,3.5743 c -0.2321,-0.2323 -0.6094,-0.2323 -0.8415,0 l -5.6535,5.6594 c -0.2321,0.2323 -0.2321,0.61 0,0.8424 0.1167,0.1167 0.269,0.1739 0.4214,0.1739 0.1523,0 0.3047,-0.0584 0.4213,-0.1739 l 5.6535,-5.6594 c 0.2309,-0.2323 0.2309,-0.6088 -0.0012,-0.8424 z m 9.8693,-2.3829 -1.1902,1.1915 c -0.2321,0.2323 -0.2321,0.61 0,0.8423 0.1166,0.1168 0.2689,0.1752 0.4213,0.1752 0.1523,0 0.3047,-0.0584 0.4213,-0.174 l 1.1902,-1.1914 c 0.2321,-0.2323 0.2321,-0.61 0,-0.8424 -0.2321,-0.2323 -0.6094,-0.2335 -0.8426,-0.0012 z m -3.5707,3.5744 -9.5526,9.5637 c -0.2321,0.2324 -0.2321,0.61 0,0.8424 0.1166,0.1167 0.269,0.1739 0.4213,0.1739 0.1524,0 0.3047,-0.0583 0.4214,-0.1739 l 9.5526,-9.5638 c 0.2321,-0.2323 0.2321,-0.61 0,-0.8423 -0.2321,-0.2323 -0.6094,-0.2323 -0.8427,0 z m 5.6035,-8.3401 c -0.232,-0.2324 -0.6093,-0.2324 -0.8414,0 l -9.5217,9.5315 c -0.2321,0.2324 -0.2321,0.6101 0,0.8424 0.1154,0.1167 0.2678,0.1751 0.4201,0.1751 0.1524,0 0.3047,-0.0584 0.4213,-0.1739 l 9.5217,-9.5316 c 0.2321,-0.2335 0.2321,-0.61 0,-0.8435 z M 21.3149,29.1313 c 0.1524,0 0.3047,-0.0583 0.4213,-0.1739 l 2.4055,-2.4079 c 0.232,-0.2324 0.232,-0.61 0,-0.8424 -0.2321,-0.2323 -0.6094,-0.2323 -0.8415,0 l -2.4054,2.4079 c -0.2321,0.2324 -0.2321,0.6101 0,0.8424 0.1154,0.1156 0.2678,0.1739 0.4201,0.1739 z m 13.8922,0.1442 -10.2549,10.001 c -1.1236,1.1247 -2.6185,1.7443 -4.2074,1.7443 -3.2814,0 -5.9511,-2.6724 -5.9511,-5.9572 0,-1.5918 0.6201,-3.0883 1.7496,-4.2178 L 26.528,20.5863 c 0.2286,-0.2359 0.2238,-0.6136 -0.0119,-0.8424 -0.2332,-0.2287 -0.6105,-0.2252 -0.8414,0.0108 l -9.9788,10.2535 c -1.3497,1.35 -2.0924,3.1443 -2.0924,5.0554 0,3.9425 3.2029,7.1486 7.1413,7.1486 1.9079,0 3.7004,-0.7434 5.0429,-2.0886 l 10.2489,-9.995 c 0.2357,-0.2288 0.2405,-0.6065 0.0119,-0.8424 -0.2309,-0.2359 -0.607,-0.2395 -0.8414,-0.0107 z m -19.2232,5.7881 c 0,2.6283 2.1353,4.7657 4.7609,4.7657 2.6256,0 4.7608,-2.1374 4.7608,-4.7657 0,-2.6284 -2.1352,-4.7658 -4.7608,-4.7658 -2.6256,0 -4.7609,2.1374 -4.7609,4.7658 z m 4.7609,-2.3829 c 0.3285,0 0.5951,0.2668 0.5951,0.5957 0,0.3288 -0.2666,0.5957 -0.5951,0.5957 -0.657,0 -1.1902,0.535 -1.1902,1.1915 0,0.3288 -0.2666,0.5957 -0.5951,0.5957 -0.3285,0 -0.5951,-0.2669 -0.5951,-0.5957 0,-1.3142 1.0676,-2.3829 2.3804,-2.3829 z"
             fill="#171F27"
             id="path1652"
             style="fill:#ffffff" />
        </g>
      </g>
    </g>
  </g>
</svg>
