<svg width="56" height="56" viewBox="0 0 56 56" fill="none" xmlns="http://www.w3.org/2000/svg">
<g clip-path="url(#clip0_437_136)">
<path d="M0 27.9151C0 12.4981 12.4852 0 27.8862 0C43.2872 0 55.7724 12.4981 55.7724 27.9151C55.7724 43.3321 43.2872 55.8303 27.8862 55.8303C12.4852 55.8303 0 43.3321 0 27.9151ZM27.8862 52.1598C41.2618 52.1598 52.1051 41.3052 52.1058 27.9151C52.1058 14.5257 41.2624 3.67112 27.8862 3.67112C14.5107 3.67112 3.66732 14.5257 3.66732 27.9151C3.66732 41.3045 14.5107 52.1591 27.8862 52.1598Z" fill="#171F27"/>
<g clip-path="url(#clip1_437_136)">
<g clip-path="url(#clip2_437_136)">
<path d="M29.2501 28.0888L25.977 31.3653C25.7449 31.5976 25.7449 31.9753 25.977 32.2077C26.0936 32.3244 26.246 32.3816 26.3983 32.3816C26.5506 32.3816 26.703 32.3232 26.8196 32.2077L30.0927 28.9312C30.3248 28.6988 30.3248 28.3212 30.0927 28.0888C29.8606 27.8565 29.4833 27.8565 29.2501 28.0888ZM25.6794 24.1666C25.7961 24.2822 25.9484 24.3405 26.1007 24.3405C26.2531 24.3405 26.4054 24.2822 26.5221 24.1666L34.8536 15.8265C35.0857 15.5941 35.0857 15.2164 34.8536 14.9841C34.6215 14.7518 34.2442 14.7518 34.0121 14.9841L25.6806 23.3242C25.4473 23.5566 25.4473 23.9331 25.6794 24.1666ZM35.2011 18.2094C35.3178 18.3249 35.4701 18.3833 35.6224 18.3833C35.7748 18.3833 35.9271 18.3249 36.0438 18.2094L39.6144 14.635C39.8465 14.4027 39.8465 14.025 39.6144 13.7927C39.3823 13.5603 39.005 13.5603 38.7729 13.7927L35.2023 17.367C34.969 17.5993 34.969 17.9758 35.2011 18.2094ZM32.8207 19.7487L31.6305 20.9401C31.3984 21.1725 31.3984 21.5502 31.6305 21.7825C31.7471 21.8993 31.8995 21.9576 32.0518 21.9576C32.2042 21.9576 32.3565 21.8993 32.4731 21.7837L33.6634 20.5922C33.8955 20.3599 33.8955 19.9822 33.6634 19.7499C33.4313 19.5176 33.054 19.5164 32.8207 19.7487ZM30.0927 23.323C29.8606 23.0907 29.4833 23.0907 29.2512 23.323L23.5977 28.9824C23.3656 29.2147 23.3656 29.5924 23.5977 29.8248C23.7144 29.9415 23.8667 29.9987 24.0191 29.9987C24.1714 29.9987 24.3238 29.9403 24.4404 29.8248L30.0939 24.1654C30.3248 23.9331 30.3248 23.5566 30.0927 23.323ZM39.962 20.9401L38.7718 22.1316C38.5397 22.3639 38.5397 22.7416 38.7718 22.9739C38.8884 23.0907 39.0407 23.1491 39.1931 23.1491C39.3454 23.1491 39.4978 23.0907 39.6144 22.9751L40.8046 21.7837C41.0367 21.5514 41.0367 21.1737 40.8046 20.9413C40.5725 20.709 40.1952 20.7078 39.962 20.9401ZM36.3913 24.5145L26.8387 34.0782C26.6066 34.3106 26.6066 34.6882 26.8387 34.9206C26.9553 35.0373 27.1077 35.0945 27.26 35.0945C27.4124 35.0945 27.5647 35.0362 27.6814 34.9206L37.234 25.3568C37.4661 25.1245 37.4661 24.7468 37.234 24.5145C37.0019 24.2822 36.6246 24.2822 36.3913 24.5145ZM41.9948 16.1744C41.7628 15.942 41.3855 15.942 41.1534 16.1744L31.6317 25.7059C31.3996 25.9383 31.3996 26.316 31.6317 26.5483C31.7471 26.665 31.8995 26.7234 32.0518 26.7234C32.2042 26.7234 32.3565 26.665 32.4731 26.5495L41.9948 17.0179C42.2269 16.7844 42.2269 16.4079 41.9948 16.1744ZM21.3149 29.1313C21.4673 29.1313 21.6196 29.073 21.7362 28.9574L24.1417 26.5495C24.3737 26.3171 24.3737 25.9395 24.1417 25.7071C23.9096 25.4748 23.5323 25.4748 23.3002 25.7071L20.8948 28.115C20.6627 28.3474 20.6627 28.7251 20.8948 28.9574C21.0102 29.073 21.1626 29.1313 21.3149 29.1313ZM35.2071 29.2755L24.9522 39.2765C23.8286 40.4012 22.3337 41.0208 20.7448 41.0208C17.4634 41.0208 14.7937 38.3484 14.7937 35.0636C14.7937 33.4718 15.4138 31.9753 16.5433 30.8458L26.528 20.5863C26.7566 20.3504 26.7518 19.9727 26.5161 19.7439C26.2829 19.5152 25.9056 19.5187 25.6747 19.7547L15.6959 30.0082C14.3462 31.3582 13.6035 33.1525 13.6035 35.0636C13.6035 39.0061 16.8064 42.2122 20.7448 42.2122C22.6527 42.2122 24.4452 41.4688 25.7877 40.1236L36.0366 30.1286C36.2723 29.8998 36.2771 29.5221 36.0485 29.2862C35.8176 29.0503 35.4415 29.0467 35.2071 29.2755ZM15.9839 35.0636C15.9839 37.6919 18.1192 39.8293 20.7448 39.8293C23.3704 39.8293 25.5056 37.6919 25.5056 35.0636C25.5056 32.4352 23.3704 30.2978 20.7448 30.2978C18.1192 30.2978 15.9839 32.4352 15.9839 35.0636ZM20.7448 32.6807C21.0733 32.6807 21.3399 32.9475 21.3399 33.2764C21.3399 33.6052 21.0733 33.8721 20.7448 33.8721C20.0878 33.8721 19.5546 34.4071 19.5546 35.0636C19.5546 35.3924 19.288 35.6593 18.9595 35.6593C18.631 35.6593 18.3644 35.3924 18.3644 35.0636C18.3644 33.7494 19.432 32.6807 20.7448 32.6807Z" fill="#171F27"/>
</g>
</g>
</g>
<defs>
<clipPath id="clip0_437_136">
<rect width="55.7728" height="55.8306" fill="white"/>
</clipPath>
<clipPath id="clip1_437_136">
<rect width="28.5654" height="28.5938" fill="white" transform="translate(13.6035 13.6184)"/>
</clipPath>
<clipPath id="clip2_437_136">
<rect width="28.5654" height="28.5938" fill="white" transform="translate(13.6035 13.6184)"/>
</clipPath>
</defs>
</svg>
