<svg xmlns="http://www.w3.org/2000/svg" version="1.1" xmlns:xlink="http://www.w3.org/1999/xlink" xmlns:svgjs="http://svgjs.dev/svgjs" width="1000" height="166" viewBox="0 0 1000 166"><g transform="matrix(1,0,0,1,-0.6060606060606233,-0.2511033813156587)"><svg viewBox="0 0 396 66" data-background-color="#001f3f" preserveAspectRatio="xMidYMid meet" height="166" width="1000" xmlns="http://www.w3.org/2000/svg" xmlns:xlink="http://www.w3.org/1999/xlink"><g id="tight-bounds" transform="matrix(1,0,0,1,0.2400000000000091,0.09983628413755241)"><svg viewBox="0 0 395.52 65.80032743172492" height="65.80032743172492" width="395.52"><g><svg viewBox="0 0 509.4517314920056 84.75447699947708" height="65.80032743172492" width="395.52"><g transform="matrix(1,0,0,1,113.93173149200562,6.30637487614662)"><svg viewBox="0 0 395.52 72.14172724718384" height="72.14172724718384" width="395.52"><g id="textblocktransform"><svg viewBox="0 0 395.52 72.14172724718384" height="72.14172724718384" width="395.52" id="textblock"><g><svg viewBox="0 0 395.52 72.14172724718384" height="72.14172724718384" width="395.52"><g transform="matrix(1,0,0,1,0,0)"><svg width="395.52" viewBox="0.9900000000000002 -39.34 230.37 42.84" height="72.14172724718384" data-palette-color="#ffffff"><path d="M11.94-14.11L11.94 0 4.49 0 4.49-35.69 24.95-35.69 24.95-29.49 11.94-29.49 11.94-20.29 24.05-20.29 24.05-14.11 11.94-14.11ZM39.5 0L31.93 0 31.93-35.69 39.5-35.69 39.5 0ZM56.05-29.49L56.05-19.85 58.49-19.85Q62.08-19.85 63.79-21.04 65.5-22.24 65.5-24.8L65.5-24.8Q65.5-27.34 63.75-28.42 62.01-29.49 58.34-29.49L58.34-29.49 56.05-29.49ZM60.08-13.7L56.05-13.7 56.05 0 48.48 0 48.48-35.69 58.88-35.69Q66.16-35.69 69.65-33.04 73.14-30.4 73.14-25L73.14-25Q73.14-21.85 71.41-19.4 69.67-16.94 66.5-15.55L66.5-15.55Q74.56-3.52 77 0L77 0 68.6 0 60.08-13.7ZM102.04-6.25L102.04 0 81.49 0 81.49-35.69 102.04-35.69 102.04-29.49 89.06-29.49 89.06-21.66 101.14-21.66 101.14-15.45 89.06-15.45 89.06-6.25 102.04-6.25ZM109.49 0L109.49-35.69 120.6-35.69Q128.19-35.69 131.62-33.53 135.05-31.37 135.05-26.66L135.05-26.66Q135.05-23.46 133.55-21.41 132.05-19.36 129.56-18.95L129.56-18.95 129.56-18.7Q132.95-17.94 134.45-15.87 135.95-13.79 135.95-10.35L135.95-10.35Q135.95-5.47 132.42-2.73 128.9 0 122.84 0L122.84 0 109.49 0ZM117.06-29.49L117.06-21.56 121.45-21.56Q124.53-21.56 125.91-22.51 127.28-23.46 127.28-25.66L127.28-25.66Q127.28-27.71 125.78-28.6 124.28-29.49 121.03-29.49L121.03-29.49 117.06-29.49ZM121.74-15.55L117.06-15.55 117.06-6.25 121.99-6.25Q125.11-6.25 126.6-7.45 128.09-8.64 128.09-11.11L128.09-11.11Q128.09-15.55 121.74-15.55L121.74-15.55ZM173.08 0L164.93 0 162.34-8.5 149.33-8.5 146.74 0 138.59 0 151.18-35.84 160.44-35.84 173.08 0ZM151.23-14.84L160.53-14.84Q156.95-26.39 156.49-27.91 156.04-29.42 155.85-30.3L155.85-30.3Q155.04-27.17 151.23-14.84L151.23-14.84ZM199.62 0L177.57 0 177.57-35.69 185.14-35.69 185.14-6.25 199.62-6.25 199.62 0ZM227.86 0L205.82 0 205.82-35.69 213.39-35.69 213.39-6.25 227.86-6.25 227.86 0Z" opacity="1" transform="matrix(1,0,0,1,0,0)" fill="#ffffff" class="wordmark-text-0" data-fill-palette-color="primary" id="text-0"></path></svg></g></svg></g></svg></g></svg></g><g><svg viewBox="0 0 84.75447699947708 84.75447699947708" height="84.75447699947708" width="84.75447699947708"><g><svg></svg></g><g id="icon-0"><svg viewBox="0 0 84.75447699947708 84.75447699947708" height="84.75447699947708" width="84.75447699947708"><g><path d="M0 42.377c0-23.404 18.973-42.377 42.377-42.377 23.404 0 42.377 18.973 42.377 42.377 0 23.404-18.973 42.377-42.377 42.377-23.404 0-42.377-18.973-42.377-42.377zM42.377 79.182c20.326 0 36.804-16.478 36.805-36.805 0-20.326-16.478-36.804-36.805-36.804-20.326 0-36.804 16.478-36.804 36.804 0 20.326 16.478 36.804 36.804 36.805z" data-fill-palette-color="accent" fill="#ffffff" stroke="transparent"></path></g><g transform="matrix(1,0,0,1,20.672682237331262,20.67358658442191)"><svg viewBox="0 0 43.40911252481455 43.40730383063326" height="43.40730383063326" width="43.40911252481455"><g><svg xmlns="http://www.w3.org/2000/svg" xmlns:xlink="http://www.w3.org/1999/xlink" version="1.1" x="0" y="0" viewBox="0 0.0007500000000001533 24.000249999999994 23.99925" style="enable-background:new 0 0 24 24;" xml:space="preserve" width="43.40911252481455" height="43.40730383063326" class="icon-z$-0" data-fill-palette-color="accent" id="z$-0"><g fill="#ffffff" data-fill-palette-color="accent"><g fill="#ffffff" data-fill-palette-color="accent"><path d="M13.146 12.146l-2.75 2.75c-0.195 0.195-0.195 0.512 0 0.707 0.098 0.098 0.226 0.146 0.354 0.146s0.256-0.049 0.354-0.146l2.75-2.75c0.195-0.195 0.195-0.512 0-0.707S13.342 11.951 13.146 12.146zM10.146 8.854C10.244 8.951 10.372 9 10.5 9s0.256-0.049 0.354-0.146l7-7c0.195-0.195 0.195-0.512 0-0.707s-0.512-0.195-0.707 0l-7 7C9.951 8.342 9.951 8.658 10.146 8.854zM18.146 3.854C18.244 3.951 18.372 4 18.5 4s0.256-0.049 0.354-0.146l3-3c0.195-0.195 0.195-0.512 0-0.707s-0.512-0.195-0.707 0l-3 3C17.951 3.342 17.951 3.658 18.146 3.854zM16.146 5.146l-1 1c-0.195 0.195-0.195 0.512 0 0.707C15.244 6.951 15.372 7 15.5 7s0.256-0.049 0.354-0.146l1-1c0.195-0.195 0.195-0.512 0-0.707S16.342 4.951 16.146 5.146zM13.854 8.146c-0.195-0.195-0.512-0.195-0.707 0l-4.75 4.75c-0.195 0.195-0.195 0.512 0 0.707 0.098 0.098 0.226 0.146 0.354 0.146 0.128 0 0.256-0.049 0.354-0.146l4.75-4.75C14.049 8.658 14.049 8.342 13.854 8.146zM22.146 6.146l-1 1c-0.195 0.195-0.195 0.512 0 0.707C21.244 7.951 21.372 8 21.5 8s0.256-0.049 0.354-0.146l1-1c0.195-0.195 0.195-0.512 0-0.707S22.342 5.951 22.146 6.146zM19.146 9.146l-8.026 8.027c-0.195 0.195-0.195 0.512 0 0.707 0.098 0.098 0.226 0.146 0.354 0.146s0.256-0.049 0.354-0.146l8.026-8.027c0.195-0.195 0.195-0.512 0-0.707S19.342 8.951 19.146 9.146zM23.854 2.146c-0.195-0.195-0.512-0.195-0.707 0l-8 8c-0.195 0.195-0.195 0.512 0 0.707C15.244 10.951 15.372 11 15.5 11s0.256-0.049 0.354-0.146l8-8C24.049 2.658 24.049 2.342 23.854 2.146zM6.479 13.021c0.128 0 0.256-0.049 0.354-0.146l2.021-2.021c0.195-0.195 0.195-0.512 0-0.707s-0.512-0.195-0.707 0l-2.021 2.021c-0.195 0.195-0.195 0.512 0 0.707C6.223 12.972 6.351 13.021 6.479 13.021zM18.151 13.142l-8.616 8.394C8.591 22.48 7.335 23 6 23c-2.757 0-5-2.243-5-5 0-1.336 0.521-2.592 1.47-3.54l8.389-8.611c0.192-0.198 0.188-0.515-0.01-0.707-0.196-0.192-0.513-0.189-0.707 0.009l-8.384 8.606C0.624 14.89 0 16.396 0 18c0 3.309 2.691 6 6 6 1.603 0 3.109-0.624 4.237-1.753l8.611-8.389c0.198-0.192 0.202-0.509 0.01-0.707C18.664 12.953 18.348 12.95 18.151 13.142zM2 18c0 2.206 1.794 4 4 4s4-1.794 4-4-1.794-4-4-4S2 15.794 2 18zM6 16c0.276 0 0.5 0.224 0.5 0.5S6.276 17 6 17c-0.552 0-1 0.449-1 1 0 0.276-0.224 0.5-0.5 0.5S4 18.276 4 18C4 16.897 4.897 16 6 16z" fill="#ffffff" data-fill-palette-color="accent"></path></g></g></svg></g></svg></g></svg></g></svg></g></svg></g><defs></defs></svg><rect width="395.52" height="65.80032743172492" fill="none" stroke="none" visibility="hidden"></rect></g></svg></g></svg>