<svg width="337" height="56" viewBox="0 0 337 56" fill="none" xmlns="http://www.w3.org/2000/svg">
<g clip-path="url(#clip0_315_11158)">
<g clip-path="url(#clip1_315_11158)">
<g clip-path="url(#clip2_315_11158)">
<g clip-path="url(#clip3_315_11158)">
<g clip-path="url(#clip4_315_11158)">
<g clip-path="url(#clip5_315_11158)">
<path d="M90.4788 32.2264V47.8785H82.2231V8.28786H104.896V15.1655H90.4788V25.371H103.898V32.2264H90.4788ZM121.019 47.8785H112.631V8.28786H121.019V47.8785ZM139.359 15.1655V25.8591H142.063C144.715 25.8591 146.673 25.419 147.936 24.539C149.199 23.6516 149.831 22.2613 149.831 20.3681C149.831 18.4897 149.185 17.1511 147.892 16.3524C146.606 15.5611 144.608 15.1655 141.897 15.1655H139.359ZM143.825 32.6812H139.359V47.8785H130.97V8.28786H142.495C147.873 8.28786 151.852 9.26773 154.43 11.2275C157.008 13.1798 158.297 16.1527 158.297 20.1462C158.297 22.4757 157.658 24.5464 156.38 26.3582C155.095 28.1775 153.281 29.6011 150.939 30.629C156.894 39.5256 160.772 45.2754 162.575 47.8785H153.266L143.825 32.6812ZM190.323 40.9455V47.8785H167.55V8.28786H190.323V15.1655H175.939V23.8512H189.325V30.74H175.939V40.9455H190.323ZM198.578 47.8785V8.28786H210.89C216.497 8.28786 220.568 9.08655 223.102 10.6839C225.636 12.2813 226.903 14.8216 226.903 18.3048C226.903 20.6713 226.348 22.6125 225.24 24.1286C224.132 25.6446 222.658 26.5542 220.819 26.8574V27.1348C223.323 27.6968 225.13 28.7432 226.238 30.2741C227.346 31.8123 227.9 33.8534 227.9 36.3974C227.9 40.0063 226.596 42.8239 223.988 44.8502C221.388 46.8691 217.849 47.8785 213.372 47.8785H198.578ZM206.967 15.1655V23.9622H211.832C214.107 23.9622 215.755 23.6109 216.774 22.9083C217.786 22.2058 218.292 21.041 218.292 19.4141C218.292 17.898 217.738 16.8109 216.63 16.1527C215.522 15.4946 213.767 15.1655 211.366 15.1655H206.967ZM212.153 30.629H206.967V40.9455H212.43C214.735 40.9455 216.438 40.5017 217.539 39.6143C218.639 38.7343 219.19 37.3809 219.19 35.5543C219.19 32.2708 216.844 30.629 212.153 30.629ZM269.045 47.8785H260.014L257.144 38.4496H242.727L239.857 47.8785H230.825L244.777 8.12146H255.038L269.045 47.8785ZM244.832 31.4166H255.138C252.493 22.8751 251.001 18.0422 250.661 16.9182C250.329 15.8015 250.092 14.9177 249.952 14.2669C249.354 16.5817 247.647 22.2982 244.832 31.4166ZM298.455 47.8785H274.021V8.28786H282.41V40.9455H298.455V47.8785ZM329.749 47.8785H305.326V8.28786H313.715V40.9455H329.749V47.8785Z" fill="#F2D492"/>
</g>
</g>
</g>
<g clip-path="url(#clip6_315_11158)">
<g clip-path="url(#clip7_315_11158)">
<path d="M0.877441 27.9998C0.877441 12.5829 13.3626 0.0847168 28.7637 0.0847168C44.1647 0.0847168 56.6499 12.5829 56.6499 27.9998C56.6499 43.4168 44.1647 55.915 28.7637 55.915C13.3626 55.915 0.877441 43.4168 0.877441 27.9998ZM28.7637 52.2445C42.1392 52.2445 52.9826 41.3899 52.9832 27.9998C52.9832 14.6104 42.1399 3.75584 28.7637 3.75584C15.3881 3.75584 4.54476 14.6104 4.54476 27.9998C4.54476 41.3893 15.3881 52.2439 28.7637 52.2445Z" fill="#F2D492"/>
<g clip-path="url(#clip8_315_11158)">
<g clip-path="url(#clip9_315_11158)">
<path d="M30.1275 28.1735L26.8544 31.45C26.6223 31.6824 26.6223 32.06 26.8544 32.2924C26.971 32.4091 27.1234 32.4663 27.2757 32.4663C27.4281 32.4663 27.5804 32.4079 27.6971 32.2924L30.9702 29.0159C31.2023 28.7836 31.2023 28.4059 30.9702 28.1735C30.7381 27.9412 30.3608 27.9412 30.1275 28.1735ZM26.5569 24.2513C26.6735 24.3669 26.8258 24.4253 26.9782 24.4253C27.1305 24.4253 27.2829 24.3669 27.3995 24.2513L35.731 15.9112C35.9631 15.6788 35.9631 15.3012 35.731 15.0688C35.4989 14.8365 35.1216 14.8365 34.8895 15.0688L26.558 23.4089C26.3248 23.6413 26.3248 24.0178 26.5569 24.2513ZM36.0786 18.2941C36.1952 18.4096 36.3475 18.468 36.4999 18.468C36.6522 18.468 36.8046 18.4096 36.9212 18.2941L40.4919 14.7197C40.724 14.4874 40.724 14.1097 40.4919 13.8774C40.2598 13.645 39.8825 13.645 39.6504 13.8774L36.0797 17.4517C35.8465 17.684 35.8465 18.0605 36.0786 18.2941ZM33.6981 19.8334L32.5079 21.0249C32.2758 21.2572 32.2758 21.6349 32.5079 21.8672C32.6246 21.984 32.7769 22.0424 32.9293 22.0424C33.0816 22.0424 33.2339 21.984 33.3506 21.8684L34.5408 20.677C34.7729 20.4446 34.7729 20.0669 34.5408 19.8346C34.3087 19.6023 33.9314 19.6011 33.6981 19.8334ZM30.9702 23.4078C30.7381 23.1754 30.3608 23.1754 30.1287 23.4078L24.4752 29.0671C24.2431 29.2995 24.2431 29.6771 24.4752 29.9095C24.5918 30.0262 24.7442 30.0834 24.8965 30.0834C25.0489 30.0834 25.2012 30.0251 25.3178 29.9095L30.9714 24.2501C31.2023 24.0178 31.2023 23.6413 30.9702 23.4078ZM40.8394 21.0249L39.6492 22.2163C39.4171 22.4486 39.4171 22.8263 39.6492 23.0587C39.7658 23.1754 39.9182 23.2338 40.0705 23.2338C40.2229 23.2338 40.3752 23.1754 40.4919 23.0599L41.6821 21.8684C41.9142 21.6361 41.9142 21.2584 41.6821 21.0261C41.45 20.7937 41.0727 20.7925 40.8394 21.0249ZM37.2688 24.5992L27.7161 34.1629C27.484 34.3953 27.484 34.773 27.7161 35.0053C27.8328 35.1221 27.9851 35.1792 28.1375 35.1792C28.2898 35.1792 28.4422 35.1209 28.5588 35.0053L38.1114 25.4416C38.3435 25.2092 38.3435 24.8315 38.1114 24.5992C37.8793 24.3669 37.502 24.3669 37.2688 24.5992ZM42.8723 16.2591C42.6402 16.0267 42.2629 16.0267 42.0308 16.2591L32.5091 25.7906C32.277 26.023 32.277 26.4007 32.5091 26.633C32.6246 26.7498 32.7769 26.8081 32.9293 26.8081C33.0816 26.8081 33.2339 26.7498 33.3506 26.6342L42.8723 17.1026C43.1044 16.8691 43.1044 16.4926 42.8723 16.2591ZM22.1923 29.2161C22.3447 29.2161 22.497 29.1577 22.6137 29.0421L25.0191 26.6342C25.2512 26.4019 25.2512 26.0242 25.0191 25.7918C24.787 25.5595 24.4097 25.5595 24.1776 25.7918L21.7722 28.1998C21.5401 28.4321 21.5401 28.8098 21.7722 29.0421C21.8877 29.1577 22.04 29.2161 22.1923 29.2161ZM36.0845 29.3602L25.8296 39.3612C24.7061 40.486 23.2112 41.1055 21.6222 41.1055C18.3408 41.1055 15.6712 38.4331 15.6712 35.1483C15.6712 33.5565 16.2913 32.06 17.4208 30.9306L27.4055 20.671C27.634 20.4351 27.6292 20.0574 27.3936 19.8287C27.1603 19.5999 26.783 19.6035 26.5521 19.8394L16.5734 30.093C15.2236 31.4429 14.481 33.2372 14.481 35.1483C14.481 39.0908 17.6838 42.297 21.6222 42.297C23.5301 42.297 25.3226 41.5535 26.6652 40.2083L36.9141 30.2133C37.1497 29.9845 37.1545 29.6069 36.926 29.3709C36.6951 29.135 36.319 29.1315 36.0845 29.3602ZM16.8614 35.1483C16.8614 37.7766 18.9966 39.9141 21.6222 39.9141C24.2478 39.9141 26.3831 37.7766 26.3831 35.1483C26.3831 32.5199 24.2478 30.3825 21.6222 30.3825C18.9966 30.3825 16.8614 32.5199 16.8614 35.1483ZM21.6222 32.7654C21.9507 32.7654 22.2173 33.0323 22.2173 33.3611C22.2173 33.6899 21.9507 33.9568 21.6222 33.9568C20.9652 33.9568 20.432 34.4918 20.432 35.1483C20.432 35.4771 20.1654 35.744 19.8369 35.744C19.5084 35.744 19.2418 35.4771 19.2418 35.1483C19.2418 33.8341 20.3094 32.7654 21.6222 32.7654Z" fill="#F2D492"/>
</g>
</g>
</g>
</g>
</g>
</g>
</g>
<defs>
<clipPath id="clip0_315_11158">
<rect width="337" height="56" fill="white"/>
</clipPath>
<clipPath id="clip1_315_11158">
<rect width="335.245" height="55.8306" fill="white" transform="translate(0.877441 0.0847168)"/>
</clipPath>
<clipPath id="clip2_315_11158">
<rect width="335.245" height="55.8306" fill="white" transform="translate(0.877441 0.0847168)"/>
</clipPath>
<clipPath id="clip3_315_11158">
<rect width="260.272" height="47.5221" fill="white" transform="translate(75.8501 4.23889)"/>
</clipPath>
<clipPath id="clip4_315_11158">
<rect width="260.272" height="47.5221" fill="white" transform="translate(75.8501 4.23889)"/>
</clipPath>
<clipPath id="clip5_315_11158">
<rect width="260.272" height="47.5221" fill="white" transform="translate(75.8501 4.23889)"/>
</clipPath>
<clipPath id="clip6_315_11158">
<rect width="55.7728" height="55.8306" fill="white" transform="translate(0.877441 0.0847168)"/>
</clipPath>
<clipPath id="clip7_315_11158">
<rect width="55.7728" height="55.8306" fill="white" transform="translate(0.877441 0.0847168)"/>
</clipPath>
<clipPath id="clip8_315_11158">
<rect width="28.5654" height="28.5938" fill="white" transform="translate(14.481 13.7031)"/>
</clipPath>
<clipPath id="clip9_315_11158">
<rect width="28.5654" height="28.5938" fill="white" transform="translate(14.481 13.7031)"/>
</clipPath>
</defs>
</svg>
