<svg width="173" height="100" viewBox="0 0 173 100" fill="none" xmlns="http://www.w3.org/2000/svg">
<rect x="4.5" y="4.5" width="164" height="91" rx="10.5" stroke="#202C39" stroke-width="9"/>
<path d="M81.504 62.536V61.256C81.504 59.3787 81.7813 57.7147 82.336 56.264C82.9333 54.8133 83.68 53.5333 84.576 52.424C85.472 51.272 86.4107 50.2267 87.392 49.288C88.7147 47.9653 89.888 46.7493 90.912 45.64C91.9787 44.488 92.512 43.144 92.512 41.608C92.512 40.6693 92.2773 39.7947 91.808 38.984C91.3387 38.1733 90.6347 37.5333 89.696 37.064C88.8 36.5947 87.6907 36.36 86.368 36.36C84.576 36.36 83.0187 36.9147 81.696 38.024C80.416 39.1333 79.6267 40.6053 79.328 42.44L71.52 40.52C71.904 38.1307 72.7573 36.04 74.08 34.248C75.4453 32.456 77.1947 31.0693 79.328 30.088C81.504 29.064 83.9147 28.552 86.56 28.552C89.6747 28.552 92.32 29.1707 94.496 30.408C96.7147 31.6453 98.4 33.2453 99.552 35.208C100.704 37.1707 101.28 39.24 101.28 41.416C101.28 43.1227 100.939 44.6373 100.256 45.96C99.5733 47.2827 98.72 48.4987 97.696 49.608C96.7147 50.6747 95.6907 51.7413 94.624 52.808C93.2587 54.088 92.064 55.432 91.04 56.84C90.016 58.248 89.504 59.8907 89.504 61.768V62.536H81.504ZM81.312 77V68.04H89.824V77H81.312Z" fill="#202C39"/>
</svg>
